<svg width="312" height="256" viewBox="0 0 312 256" fill="none" xmlns="http://www.w3.org/2000/svg">
<circle cx="30" cy="225.137" r="30" fill="#DAEAFF"/>
<circle cx="110" cy="225.137" r="30" fill="#7AB3FF"/>
<path d="M107.402 135.637C108.557 133.637 111.443 133.637 112.598 135.637L136.847 177.637C138.001 179.637 136.558 182.137 134.249 182.137H85.7513C83.4419 182.137 81.9985 179.637 83.1532 177.637L107.402 135.637Z" fill="#FFC2C2"/>
<circle cx="194" cy="225.137" r="30" fill="#214DF5"/>
<circle cx="194" cy="92.9812" r="30" fill="#FFE68E"/>
<path d="M191.402 135.637C192.557 133.637 195.443 133.637 196.598 135.637L220.847 177.637C222.001 179.637 220.558 182.137 218.249 182.137H169.751C167.442 182.137 165.999 179.637 167.153 177.637L191.402 135.637Z" fill="#FF9696"/>
<circle cx="278" cy="225.137" r="30" fill="#0026B8"/>
<circle cx="278" cy="92.9812" r="30" fill="#FCCE2A"/>
<path d="M275.402 135.637C276.557 133.637 279.443 133.637 280.598 135.637L304.847 177.637C306.001 179.637 304.558 182.137 302.249 182.137H253.751C251.442 182.137 249.999 179.637 251.153 177.637L275.402 135.637Z" fill="#FF4949"/>
<rect x="252" y="0.863037" width="52" height="52" rx="4" fill="#51C582"/>
</svg>
