<svg width="608" height="580" viewBox="0 0 608 580" fill="none" xmlns="http://www.w3.org/2000/svg">
<rect width="608" height="580" fill="white"/>
<circle r="10" transform="matrix(-1 0 0 1 445 388)" fill="#CB2424"/>
<ellipse rx="20.5" ry="20" transform="matrix(-1 0 0 1 400.5 388)" fill="#9747FF"/>
<circle r="41" transform="matrix(-1 0 0 1 326 388)" fill="#ED702D"/>
<ellipse rx="61.5" ry="61" transform="matrix(-1 0 0 1 209.5 388)" fill="#FFC2C2"/>
<circle cx="158" cy="288" r="10" fill="#EFD062"/>
<ellipse cx="202.5" cy="288" rx="20.5" ry="20" fill="#51C582"/>
<circle cx="277" cy="288" r="41" fill="#727272"/>
<ellipse cx="393.5" cy="288" rx="61.5" ry="61" fill="#FFD749"/>
<circle r="10" transform="matrix(-1 0 0 1 445 188)" fill="#2E75D3"/>
<ellipse rx="20.5" ry="20" transform="matrix(-1 0 0 1 400.5 188)" fill="#EFEFEF"/>
<circle r="41" transform="matrix(-1 0 0 1 326 188)" fill="#D9D9D9"/>
<ellipse rx="61.5" ry="61" transform="matrix(-1 0 0 1 209.5 188)" fill="#DAEAFF"/>
</svg>
