<svg width="608" height="580" viewBox="0 0 608 580" fill="none" xmlns="http://www.w3.org/2000/svg">
<g clip-path="url(#clip0_130_1111)">
<rect width="608" height="580" fill="white"/>
<circle cx="178" cy="387.137" r="30" fill="#DAEAFF"/>
<circle cx="258" cy="387.137" r="30" fill="#7AB3FF"/>
<path d="M255.402 297.637C256.557 295.637 259.443 295.637 260.598 297.637L284.847 339.637C286.001 341.637 284.558 344.137 282.249 344.137H233.751C231.442 344.137 229.999 341.637 231.153 339.637L255.402 297.637Z" fill="#FFC2C2"/>
<circle cx="342" cy="387.137" r="30" fill="#214DF5"/>
<circle cx="342" cy="254.981" r="30" fill="#FFE68E"/>
<path d="M339.402 297.637C340.557 295.637 343.443 295.637 344.598 297.637L368.847 339.637C370.001 341.637 368.558 344.137 366.249 344.137H317.751C315.442 344.137 313.999 341.637 315.153 339.637L339.402 297.637Z" fill="#FF9696"/>
<circle cx="426" cy="387.137" r="30" fill="#0026B8"/>
<circle cx="426" cy="254.981" r="30" fill="#FCCE2A"/>
<path d="M423.402 297.637C424.557 295.637 427.443 295.637 428.598 297.637L452.847 339.637C454.001 341.637 452.558 344.137 450.249 344.137H401.751C399.442 344.137 397.999 341.637 399.153 339.637L423.402 297.637Z" fill="#FF4949"/>
<rect x="400" y="162.863" width="52" height="52" rx="4" fill="#51C582"/>
</g>
<defs>
<clipPath id="clip0_130_1111">
<rect width="608" height="580" fill="white"/>
</clipPath>
</defs>
</svg>
