<svg width="218" height="135" viewBox="0 0 218 135" fill="none" xmlns="http://www.w3.org/2000/svg">
<g clip-path="url(#clip0_186_2303)">
<g filter="url(#filter0_d_186_2303)">
<path d="M207.113 90.239C207.113 88.0299 205.322 86.239 203.113 86.239H188.227C186.017 86.239 184.227 88.0299 184.227 90.239V137.478H207.113V90.239Z" fill="#51C582"/>
</g>
<g filter="url(#filter1_d_186_2303)">
<path d="M178.761 39C178.761 36.7909 176.97 35 174.761 35H159.874C157.665 35 155.874 36.7909 155.874 39V86.2389H178.761V39Z" fill="#51C582"/>
<rect width="22.8867" height="51.2389" transform="matrix(-1 0 0 1 178.761 86.239)" fill="#FFC2C2"/>
</g>
<g filter="url(#filter2_d_186_2303)">
<path d="M150.409 39C150.409 36.7909 148.618 35 146.409 35H131.522C129.313 35 127.522 36.7909 127.522 39V137.478H150.409V39Z" fill="#FFC2C2"/>
</g>
<g filter="url(#filter3_d_186_2303)">
<path d="M122.057 90.4779C122.057 88.2688 120.266 86.4779 118.057 86.4779H103.057C100.848 86.4779 99.0566 88.2688 99.0566 90.4779V137.478H122.057V90.4779Z" fill="#7AB3FF"/>
</g>
<g filter="url(#filter4_d_186_2303)">
<path d="M93.5912 64.6195C93.5912 62.4104 91.8003 60.6195 89.5912 60.6195H74.7044C72.4953 60.6195 70.7044 62.4104 70.7044 64.6195V86.239H93.5912V64.6195Z" fill="#7AB3FF"/>
<rect width="22.8867" height="51.2389" transform="matrix(-1 0 0 1 93.5912 86.239)" fill="#FFB649"/>
</g>
<g filter="url(#filter5_d_186_2303)">
<path d="M65.2389 90.2389C65.2389 88.0298 63.4481 86.2389 61.2389 86.2389H46.3522C44.1431 86.2389 42.3522 88.0298 42.3522 90.2389V137.478H65.2389V90.2389Z" fill="#FFB649"/>
</g>
<g filter="url(#filter6_d_186_2303)">
<path d="M36.8867 115.858C36.8867 113.649 35.0959 111.858 32.8867 111.858H18C15.7909 111.858 14 113.649 14 115.858V137.478H36.8867V115.858Z" fill="#FFB649"/>
</g>
</g>
<defs>
<filter id="filter0_d_186_2303" x="179.227" y="86.239" width="27.8867" height="56.2389" filterUnits="userSpaceOnUse" color-interpolation-filters="sRGB">
<feFlood flood-opacity="0" result="BackgroundImageFix"/>
<feColorMatrix in="SourceAlpha" type="matrix" values="0 0 0 0 0 0 0 0 0 0 0 0 0 0 0 0 0 0 127 0" result="hardAlpha"/>
<feOffset dx="-5" dy="5"/>
<feComposite in2="hardAlpha" operator="out"/>
<feColorMatrix type="matrix" values="0 0 0 0 0 0 0 0 0 0 0 0 0 0 0 0 0 0 0.25 0"/>
<feBlend mode="normal" in2="BackgroundImageFix" result="effect1_dropShadow_186_2303"/>
<feBlend mode="normal" in="SourceGraphic" in2="effect1_dropShadow_186_2303" result="shape"/>
</filter>
<filter id="filter1_d_186_2303" x="150.874" y="35" width="27.8867" height="107.478" filterUnits="userSpaceOnUse" color-interpolation-filters="sRGB">
<feFlood flood-opacity="0" result="BackgroundImageFix"/>
<feColorMatrix in="SourceAlpha" type="matrix" values="0 0 0 0 0 0 0 0 0 0 0 0 0 0 0 0 0 0 127 0" result="hardAlpha"/>
<feOffset dx="-5" dy="5"/>
<feComposite in2="hardAlpha" operator="out"/>
<feColorMatrix type="matrix" values="0 0 0 0 0 0 0 0 0 0 0 0 0 0 0 0 0 0 0.25 0"/>
<feBlend mode="normal" in2="BackgroundImageFix" result="effect1_dropShadow_186_2303"/>
<feBlend mode="normal" in="SourceGraphic" in2="effect1_dropShadow_186_2303" result="shape"/>
</filter>
<filter id="filter2_d_186_2303" x="122.522" y="35" width="27.8867" height="107.478" filterUnits="userSpaceOnUse" color-interpolation-filters="sRGB">
<feFlood flood-opacity="0" result="BackgroundImageFix"/>
<feColorMatrix in="SourceAlpha" type="matrix" values="0 0 0 0 0 0 0 0 0 0 0 0 0 0 0 0 0 0 127 0" result="hardAlpha"/>
<feOffset dx="-5" dy="5"/>
<feComposite in2="hardAlpha" operator="out"/>
<feColorMatrix type="matrix" values="0 0 0 0 0 0 0 0 0 0 0 0 0 0 0 0 0 0 0.25 0"/>
<feBlend mode="normal" in2="BackgroundImageFix" result="effect1_dropShadow_186_2303"/>
<feBlend mode="normal" in="SourceGraphic" in2="effect1_dropShadow_186_2303" result="shape"/>
</filter>
<filter id="filter3_d_186_2303" x="94.0566" y="86.4779" width="28" height="56" filterUnits="userSpaceOnUse" color-interpolation-filters="sRGB">
<feFlood flood-opacity="0" result="BackgroundImageFix"/>
<feColorMatrix in="SourceAlpha" type="matrix" values="0 0 0 0 0 0 0 0 0 0 0 0 0 0 0 0 0 0 127 0" result="hardAlpha"/>
<feOffset dx="-5" dy="5"/>
<feComposite in2="hardAlpha" operator="out"/>
<feColorMatrix type="matrix" values="0 0 0 0 0 0 0 0 0 0 0 0 0 0 0 0 0 0 0.25 0"/>
<feBlend mode="normal" in2="BackgroundImageFix" result="effect1_dropShadow_186_2303"/>
<feBlend mode="normal" in="SourceGraphic" in2="effect1_dropShadow_186_2303" result="shape"/>
</filter>
<filter id="filter4_d_186_2303" x="65.7044" y="60.6195" width="27.8867" height="81.8584" filterUnits="userSpaceOnUse" color-interpolation-filters="sRGB">
<feFlood flood-opacity="0" result="BackgroundImageFix"/>
<feColorMatrix in="SourceAlpha" type="matrix" values="0 0 0 0 0 0 0 0 0 0 0 0 0 0 0 0 0 0 127 0" result="hardAlpha"/>
<feOffset dx="-5" dy="5"/>
<feComposite in2="hardAlpha" operator="out"/>
<feColorMatrix type="matrix" values="0 0 0 0 0 0 0 0 0 0 0 0 0 0 0 0 0 0 0.25 0"/>
<feBlend mode="normal" in2="BackgroundImageFix" result="effect1_dropShadow_186_2303"/>
<feBlend mode="normal" in="SourceGraphic" in2="effect1_dropShadow_186_2303" result="shape"/>
</filter>
<filter id="filter5_d_186_2303" x="37.3522" y="86.2389" width="27.8867" height="56.2389" filterUnits="userSpaceOnUse" color-interpolation-filters="sRGB">
<feFlood flood-opacity="0" result="BackgroundImageFix"/>
<feColorMatrix in="SourceAlpha" type="matrix" values="0 0 0 0 0 0 0 0 0 0 0 0 0 0 0 0 0 0 127 0" result="hardAlpha"/>
<feOffset dx="-5" dy="5"/>
<feComposite in2="hardAlpha" operator="out"/>
<feColorMatrix type="matrix" values="0 0 0 0 0 0 0 0 0 0 0 0 0 0 0 0 0 0 0.25 0"/>
<feBlend mode="normal" in2="BackgroundImageFix" result="effect1_dropShadow_186_2303"/>
<feBlend mode="normal" in="SourceGraphic" in2="effect1_dropShadow_186_2303" result="shape"/>
</filter>
<filter id="filter6_d_186_2303" x="9" y="111.858" width="27.8867" height="30.6195" filterUnits="userSpaceOnUse" color-interpolation-filters="sRGB">
<feFlood flood-opacity="0" result="BackgroundImageFix"/>
<feColorMatrix in="SourceAlpha" type="matrix" values="0 0 0 0 0 0 0 0 0 0 0 0 0 0 0 0 0 0 127 0" result="hardAlpha"/>
<feOffset dx="-5" dy="5"/>
<feComposite in2="hardAlpha" operator="out"/>
<feColorMatrix type="matrix" values="0 0 0 0 0 0 0 0 0 0 0 0 0 0 0 0 0 0 0.25 0"/>
<feBlend mode="normal" in2="BackgroundImageFix" result="effect1_dropShadow_186_2303"/>
<feBlend mode="normal" in="SourceGraphic" in2="effect1_dropShadow_186_2303" result="shape"/>
</filter>
<clipPath id="clip0_186_2303">
<rect width="218" height="135" fill="white"/>
</clipPath>
</defs>
</svg>
