<svg width="218" height="135" viewBox="0 0 218 135" fill="none" xmlns="http://www.w3.org/2000/svg">
<g clip-path="url(#clip0_186_2301)">
<g filter="url(#filter0_d_186_2301)">
<path d="M64 93C64 90.7909 65.7909 89 68 89H106.07C107.289 89 108.442 89.5563 109.201 90.511L117 100.323L125.131 110.552C125.694 111.26 126 112.137 126 113.041V163C126 165.209 124.209 167 122 167H68C65.7909 167 64 165.209 64 163V93Z" fill="#FF4949"/>
<path d="M108 107H126L108 89V107Z" fill="black" fill-opacity="0.11"/>
</g>
<g filter="url(#filter1_d_186_2301)">
<path d="M77 80C77 77.7909 78.7909 76 81 76H119.07C120.289 76 121.442 76.5563 122.201 77.511L130 87.3226L138.131 97.5523C138.694 98.2599 139 99.1373 139 100.041V150C139 152.209 137.209 154 135 154H81C78.7909 154 77 152.209 77 150V80Z" fill="#FFD749"/>
<path d="M121 94H139L121 76V94Z" fill="black" fill-opacity="0.11"/>
</g>
<g filter="url(#filter2_d_186_2301)">
<path d="M90 67C90 64.7909 91.7909 63 94 63H132.07C133.289 63 134.442 63.5563 135.201 64.511L143 74.3226L151.131 84.5523C151.694 85.2599 152 86.1373 152 87.0412V137C152 139.209 150.209 141 148 141H94C91.7909 141 90 139.209 90 137V67Z" fill="#9747FF"/>
<path d="M134 81H152L134 63V81Z" fill="black" fill-opacity="0.11"/>
</g>
<g filter="url(#filter3_d_186_2301)">
<path d="M103 54C103 51.7909 104.791 50 107 50H145.07C146.289 50 147.442 50.5563 148.201 51.511L156 61.3226L164.131 71.5523C164.694 72.2599 165 73.1373 165 74.0412V124C165 126.209 163.209 128 161 128H107C104.791 128 103 126.209 103 124V54Z" fill="#EFEFEF"/>
<path d="M147 68H165L147 50V68Z" fill="black" fill-opacity="0.11"/>
</g>
<g filter="url(#filter4_d_186_2301)">
<path d="M116 41C116 38.7909 117.791 37 120 37H158.07C159.289 37 160.442 37.5563 161.201 38.511L169 48.3226L177.131 58.5523C177.694 59.2599 178 60.1373 178 61.0412V111C178 113.209 176.209 115 174 115H120C117.791 115 116 113.209 116 111V41Z" fill="#DAEAFF"/>
<path d="M160 55H178L160 37V55Z" fill="black" fill-opacity="0.11"/>
</g>
</g>
<defs>
<filter id="filter0_d_186_2301" x="59" y="89" width="67" height="84" filterUnits="userSpaceOnUse" color-interpolation-filters="sRGB">
<feFlood flood-opacity="0" result="BackgroundImageFix"/>
<feColorMatrix in="SourceAlpha" type="matrix" values="0 0 0 0 0 0 0 0 0 0 0 0 0 0 0 0 0 0 127 0" result="hardAlpha"/>
<feOffset dx="-5" dy="5"/>
<feComposite in2="hardAlpha" operator="out"/>
<feColorMatrix type="matrix" values="0 0 0 0 0 0 0 0 0 0 0 0 0 0 0 0 0 0 0.25 0"/>
<feBlend mode="normal" in2="BackgroundImageFix" result="effect1_dropShadow_186_2301"/>
<feBlend mode="normal" in="SourceGraphic" in2="effect1_dropShadow_186_2301" result="shape"/>
</filter>
<filter id="filter1_d_186_2301" x="72" y="76" width="67" height="84" filterUnits="userSpaceOnUse" color-interpolation-filters="sRGB">
<feFlood flood-opacity="0" result="BackgroundImageFix"/>
<feColorMatrix in="SourceAlpha" type="matrix" values="0 0 0 0 0 0 0 0 0 0 0 0 0 0 0 0 0 0 127 0" result="hardAlpha"/>
<feOffset dx="-5" dy="5"/>
<feComposite in2="hardAlpha" operator="out"/>
<feColorMatrix type="matrix" values="0 0 0 0 0 0 0 0 0 0 0 0 0 0 0 0 0 0 0.25 0"/>
<feBlend mode="normal" in2="BackgroundImageFix" result="effect1_dropShadow_186_2301"/>
<feBlend mode="normal" in="SourceGraphic" in2="effect1_dropShadow_186_2301" result="shape"/>
</filter>
<filter id="filter2_d_186_2301" x="85" y="63" width="67" height="84" filterUnits="userSpaceOnUse" color-interpolation-filters="sRGB">
<feFlood flood-opacity="0" result="BackgroundImageFix"/>
<feColorMatrix in="SourceAlpha" type="matrix" values="0 0 0 0 0 0 0 0 0 0 0 0 0 0 0 0 0 0 127 0" result="hardAlpha"/>
<feOffset dx="-5" dy="5"/>
<feComposite in2="hardAlpha" operator="out"/>
<feColorMatrix type="matrix" values="0 0 0 0 0 0 0 0 0 0 0 0 0 0 0 0 0 0 0.25 0"/>
<feBlend mode="normal" in2="BackgroundImageFix" result="effect1_dropShadow_186_2301"/>
<feBlend mode="normal" in="SourceGraphic" in2="effect1_dropShadow_186_2301" result="shape"/>
</filter>
<filter id="filter3_d_186_2301" x="98" y="50" width="67" height="84" filterUnits="userSpaceOnUse" color-interpolation-filters="sRGB">
<feFlood flood-opacity="0" result="BackgroundImageFix"/>
<feColorMatrix in="SourceAlpha" type="matrix" values="0 0 0 0 0 0 0 0 0 0 0 0 0 0 0 0 0 0 127 0" result="hardAlpha"/>
<feOffset dx="-5" dy="5"/>
<feComposite in2="hardAlpha" operator="out"/>
<feColorMatrix type="matrix" values="0 0 0 0 0 0 0 0 0 0 0 0 0 0 0 0 0 0 0.25 0"/>
<feBlend mode="normal" in2="BackgroundImageFix" result="effect1_dropShadow_186_2301"/>
<feBlend mode="normal" in="SourceGraphic" in2="effect1_dropShadow_186_2301" result="shape"/>
</filter>
<filter id="filter4_d_186_2301" x="111" y="37" width="67" height="84" filterUnits="userSpaceOnUse" color-interpolation-filters="sRGB">
<feFlood flood-opacity="0" result="BackgroundImageFix"/>
<feColorMatrix in="SourceAlpha" type="matrix" values="0 0 0 0 0 0 0 0 0 0 0 0 0 0 0 0 0 0 127 0" result="hardAlpha"/>
<feOffset dx="-5" dy="5"/>
<feComposite in2="hardAlpha" operator="out"/>
<feColorMatrix type="matrix" values="0 0 0 0 0 0 0 0 0 0 0 0 0 0 0 0 0 0 0.25 0"/>
<feBlend mode="normal" in2="BackgroundImageFix" result="effect1_dropShadow_186_2301"/>
<feBlend mode="normal" in="SourceGraphic" in2="effect1_dropShadow_186_2301" result="shape"/>
</filter>
<clipPath id="clip0_186_2301">
<rect width="218" height="135" fill="white"/>
</clipPath>
</defs>
</svg>
