<svg width="218" height="135" viewBox="0 0 218 135" fill="none" xmlns="http://www.w3.org/2000/svg">
<g clip-path="url(#clip0_186_2299)">
<circle cx="123.036" cy="94" r="53.5947" fill="#7AB3FF"/>
<path fill-rule="evenodd" clip-rule="evenodd" d="M170.293 71.377L122.127 94.9084V41.3137C122.127 41.3137 122.127 41.3137 122.127 41.3137C143.285 41.3137 161.579 53.5737 170.293 71.377Z" fill="#FFC2C2"/>
<path fill-rule="evenodd" clip-rule="evenodd" d="M166.914 125.302C173.261 116.496 177 105.684 177 94C177 64.4005 153.005 40.4053 123.405 40.4053C102.341 40.4053 84.1141 52.558 75.3547 70.2346C85.0861 56.7321 100.948 47.9421 118.863 47.9421C148.463 47.9421 172.458 71.9372 172.458 101.537C172.458 110.071 170.463 118.14 166.914 125.302Z" fill="white" fill-opacity="0.32"/>
</g>
<defs>
<clipPath id="clip0_186_2299">
<rect width="218" height="135" fill="white"/>
</clipPath>
</defs>
</svg>
