<svg width="307" height="322" viewBox="0 0 307 322" fill="none" xmlns="http://www.w3.org/2000/svg">
<circle r="10" transform="matrix(-1 0 0 1 297 261)" fill="#CB2424"/>
<ellipse rx="20.5" ry="20" transform="matrix(-1 0 0 1 252.5 261)" fill="#9747FF"/>
<circle r="41" transform="matrix(-1 0 0 1 178 261)" fill="#ED702D"/>
<ellipse rx="61.5" ry="61" transform="matrix(-1 0 0 1 61.5 261)" fill="#FFC2C2"/>
<circle cx="10" cy="161" r="10" fill="#EFD062"/>
<ellipse cx="54.5" cy="161" rx="20.5" ry="20" fill="#51C582"/>
<circle cx="129" cy="161" r="41" fill="#727272"/>
<ellipse cx="245.5" cy="161" rx="61.5" ry="61" fill="#FFD749"/>
<circle r="10" transform="matrix(-1 0 0 1 297 61)" fill="#2E75D3"/>
<ellipse rx="20.5" ry="20" transform="matrix(-1 0 0 1 252.5 61)" fill="#EFEFEF"/>
<circle r="41" transform="matrix(-1 0 0 1 178 61)" fill="#D9D9D9"/>
<ellipse rx="61.5" ry="61" transform="matrix(-1 0 0 1 61.5 61)" fill="#DAEAFF"/>
</svg>
