<svg width="374" height="80" viewBox="0 0 374 80" fill="none" xmlns="http://www.w3.org/2000/svg">
<g clip-path="url(#clip0_1_426)">
<path d="M0 4.5C0 2.29086 1.79086 0.5 4 0.5H42.0698C43.2893 0.5 44.4422 1.05635 45.2011 2.01102L53 11.8226L61.1313 22.0523C61.6938 22.7599 62 23.6373 62 24.5412V74.5C62 76.7091 60.2091 78.5 58 78.5H4C1.79086 78.5 0 76.7091 0 74.5V4.5Z" fill="#FFD749"/>
<path d="M44 18.5H62L44 0.5V18.5Z" fill="black" fill-opacity="0.11"/>
</g>
<g clip-path="url(#clip1_1_426)">
<path d="M78 4.5C78 2.29086 79.7909 0.5 82 0.5H120.07C121.289 0.5 122.442 1.05635 123.201 2.01102L131 11.8226L139.131 22.0523C139.694 22.7599 140 23.6373 140 24.5412V74.5C140 76.7091 138.209 78.5 136 78.5H82C79.7909 78.5 78 76.7091 78 74.5V4.5Z" fill="#9747FF"/>
<path d="M122 18.5H140L122 0.5V18.5Z" fill="black" fill-opacity="0.11"/>
</g>
<g clip-path="url(#clip2_1_426)">
<path d="M156 4.5C156 2.29086 157.791 0.5 160 0.5H198.07C199.289 0.5 200.442 1.05635 201.201 2.01102L209 11.8226L217.131 22.0523C217.694 22.7599 218 23.6373 218 24.5412V74.5C218 76.7091 216.209 78.5 214 78.5H160C157.791 78.5 156 76.7091 156 74.5V4.5Z" fill="#FF4949"/>
<path d="M200 18.5H218L200 0.5V18.5Z" fill="black" fill-opacity="0.11"/>
</g>
<g clip-path="url(#clip3_1_426)">
<path d="M234 4.5C234 2.29086 235.791 0.5 238 0.5H276.07C277.289 0.5 278.442 1.05635 279.201 2.01102L287 11.8226L295.131 22.0523C295.694 22.7599 296 23.6373 296 24.5412V74.5C296 76.7091 294.209 78.5 292 78.5H238C235.791 78.5 234 76.7091 234 74.5V4.5Z" fill="#EFEFEF"/>
<path d="M278 18.5H296L278 0.5V18.5Z" fill="black" fill-opacity="0.11"/>
</g>
<g clip-path="url(#clip4_1_426)">
<path d="M312 4.5C312 2.29086 313.791 0.5 316 0.5H354.07C355.289 0.5 356.442 1.05635 357.201 2.01102L365 11.8226L373.131 22.0523C373.694 22.7599 374 23.6373 374 24.5412V74.5C374 76.7091 372.209 78.5 370 78.5H316C313.791 78.5 312 76.7091 312 74.5V4.5Z" fill="#DAEAFF"/>
<path d="M356 18.5H374L356 0.5V18.5Z" fill="black" fill-opacity="0.11"/>
</g>
<defs>
<clipPath id="clip0_1_426">
<rect width="62" height="79" fill="white" transform="translate(0 0.5)"/>
</clipPath>
<clipPath id="clip1_1_426">
<rect width="62" height="79" fill="white" transform="translate(78 0.5)"/>
</clipPath>
<clipPath id="clip2_1_426">
<rect width="62" height="79" fill="white" transform="translate(156 0.5)"/>
</clipPath>
<clipPath id="clip3_1_426">
<rect width="62" height="79" fill="white" transform="translate(234 0.5)"/>
</clipPath>
<clipPath id="clip4_1_426">
<rect width="62" height="79" fill="white" transform="translate(312 0.5)"/>
</clipPath>
</defs>
</svg>
