<svg width="133" height="49" viewBox="0 0 133 49" fill="none" xmlns="http://www.w3.org/2000/svg">
<circle cx="23" cy="24.5" r="15" fill="#51C582"/>
<circle cx="23" cy="24.4999" r="10.1825" fill="#CEFFE3"/>
<circle cx="23" cy="24.5001" r="5.25547" fill="#51C582"/>
<path d="M46.108 19.76H56.008L56.386 21.596H52.192V32H49.834V21.596H46.108V19.76ZM59.3386 29.39C59.3386 29.642 59.4406 29.87 59.6446 30.074C59.8486 30.266 60.1186 30.362 60.4546 30.362C60.7786 30.362 61.1026 30.29 61.4266 30.146C61.7626 30.002 62.0806 29.786 62.3806 29.498V28.166H60.6166C60.2086 28.166 59.8906 28.292 59.6626 28.544C59.4466 28.796 59.3386 29.078 59.3386 29.39ZM60.4906 32.216C59.4226 32.216 58.6306 31.958 58.1146 31.442C57.5986 30.914 57.3406 30.23 57.3406 29.39C57.3406 28.49 57.6466 27.8 58.2586 27.32C58.8706 26.84 59.6686 26.6 60.6526 26.6H62.3626C62.3506 26.156 62.2186 25.814 61.9666 25.574C61.7266 25.322 61.3906 25.196 60.9586 25.196C60.5506 25.196 60.1066 25.256 59.6266 25.376C59.1466 25.484 58.7446 25.616 58.4206 25.772L57.7906 23.828C58.1266 23.6 58.6366 23.414 59.3206 23.27C60.0166 23.114 60.5506 23.036 60.9226 23.036C61.9666 23.036 62.8606 23.342 63.6046 23.954C64.3486 24.554 64.7206 25.322 64.7206 26.258V32H63.5146L62.9386 31.262C62.6146 31.514 62.2306 31.736 61.7866 31.928C61.3546 32.12 60.9226 32.216 60.4906 32.216ZM72.0038 25.628C71.5838 25.436 71.1938 25.292 70.8338 25.196C70.4738 25.088 70.0898 25.034 69.6818 25.034C69.3818 25.034 69.1478 25.094 68.9798 25.214C68.8238 25.322 68.7458 25.478 68.7458 25.682C68.7458 25.826 68.8418 25.964 69.0338 26.096C69.2378 26.228 69.5618 26.372 70.0058 26.528C70.7378 26.792 71.4158 27.164 72.0398 27.644C72.6638 28.112 72.9758 28.724 72.9758 29.48C72.9758 30.344 72.6638 31.016 72.0398 31.496C71.4278 31.976 70.5278 32.216 69.3398 32.216C68.9678 32.216 68.4698 32.144 67.8458 32C67.2338 31.856 66.7238 31.628 66.3158 31.316L67.0178 29.624C67.4378 29.816 67.8398 29.966 68.2238 30.074C68.6198 30.17 68.9798 30.218 69.3038 30.218C69.7358 30.218 70.0658 30.158 70.2938 30.038C70.5218 29.918 70.6358 29.762 70.6358 29.57C70.6358 29.33 70.5218 29.114 70.2938 28.922C70.0658 28.73 69.7058 28.556 69.2138 28.4C68.5178 28.172 67.8578 27.848 67.2338 27.428C66.6218 26.996 66.3158 26.42 66.3158 25.7C66.3158 24.872 66.6218 24.224 67.2338 23.756C67.8458 23.276 68.6738 23.036 69.7178 23.036C70.0898 23.036 70.5698 23.114 71.1578 23.27C71.7458 23.426 72.2618 23.654 72.7058 23.954L72.0038 25.628ZM77.0913 19.292V26.456L80.8353 23.018L82.1493 24.674L79.7013 26.816L82.9053 32H80.2233L78.0273 28.31L77.0913 29.138V32H74.7693V19.49L77.0913 19.292ZM85.8815 29.39C85.8815 29.642 85.9835 29.87 86.1875 30.074C86.3915 30.266 86.6615 30.362 86.9975 30.362C87.3215 30.362 87.6455 30.29 87.9695 30.146C88.3055 30.002 88.6235 29.786 88.9235 29.498V28.166H87.1595C86.7515 28.166 86.4335 28.292 86.2055 28.544C85.9895 28.796 85.8815 29.078 85.8815 29.39ZM87.0335 32.216C85.9655 32.216 85.1735 31.958 84.6575 31.442C84.1415 30.914 83.8835 30.23 83.8835 29.39C83.8835 28.49 84.1895 27.8 84.8015 27.32C85.4135 26.84 86.2115 26.6 87.1955 26.6H88.9055C88.8935 26.156 88.7615 25.814 88.5095 25.574C88.2695 25.322 87.9335 25.196 87.5015 25.196C87.0935 25.196 86.6495 25.256 86.1695 25.376C85.6895 25.484 85.2875 25.616 84.9635 25.772L84.3335 23.828C84.6695 23.6 85.1795 23.414 85.8635 23.27C86.5595 23.114 87.0935 23.036 87.4655 23.036C88.5095 23.036 89.4035 23.342 90.1475 23.954C90.8915 24.554 91.2635 25.322 91.2635 26.258V32H90.0575L89.4815 31.262C89.1575 31.514 88.7735 31.736 88.3295 31.928C87.8975 32.12 87.4655 32.216 87.0335 32.216ZM95.3428 24.206C95.7388 23.81 96.2308 23.498 96.8188 23.27C97.4188 23.042 97.9528 22.928 98.4208 22.928C99.6088 22.928 100.449 23.276 100.941 23.972C101.445 24.668 101.697 25.52 101.697 26.528V32H99.3568V26.636C99.3568 26.084 99.2248 25.664 98.9608 25.376C98.6968 25.076 98.3128 24.926 97.8088 24.926C97.4728 24.926 97.1188 25.016 96.7468 25.196C96.3868 25.364 96.0568 25.562 95.7568 25.79V32H93.4168V23.27H94.6408L95.3428 24.206ZM108.088 24.926C107.272 24.926 106.702 25.214 106.378 25.79C106.066 26.366 105.91 26.96 105.91 27.572C105.91 28.256 106.054 28.868 106.342 29.408C106.63 29.948 107.212 30.218 108.088 30.218C108.364 30.218 108.652 30.158 108.952 30.038C109.264 29.906 109.552 29.756 109.816 29.588V25.556C109.552 25.376 109.264 25.226 108.952 25.106C108.652 24.986 108.364 24.926 108.088 24.926ZM112.174 19.292V32H110.95L110.302 31.154C109.906 31.49 109.438 31.754 108.898 31.946C108.37 32.126 107.89 32.216 107.458 32.216C106.186 32.216 105.208 31.772 104.524 30.884C103.84 29.996 103.498 28.892 103.498 27.572C103.498 26.252 103.858 25.148 104.578 24.26C105.31 23.372 106.306 22.928 107.566 22.928C107.89 22.928 108.256 22.988 108.664 23.108C109.072 23.216 109.456 23.372 109.816 23.576V19.49L112.174 19.292ZM118.543 32.216C117.163 32.204 116.083 31.784 115.303 30.956C114.535 30.128 114.151 29.012 114.151 27.608C114.151 26.216 114.553 25.106 115.357 24.278C116.173 23.45 117.283 23.036 118.687 23.036C120.139 23.036 121.261 23.468 122.053 24.332C122.857 25.184 123.259 26.306 123.259 27.698C123.259 29.09 122.827 30.188 121.963 30.992C121.099 31.796 119.959 32.204 118.543 32.216ZM120.847 27.698C120.847 26.87 120.661 26.222 120.289 25.754C119.929 25.274 119.413 25.034 118.741 25.034C118.057 25.034 117.523 25.244 117.139 25.664C116.755 26.084 116.563 26.726 116.563 27.59C116.563 28.454 116.725 29.108 117.049 29.552C117.385 29.996 117.895 30.218 118.579 30.218C119.251 30.218 119.797 30.02 120.217 29.624C120.637 29.216 120.847 28.574 120.847 27.698Z" fill="#242424"/>
</svg>
